<svg width="810" height="459" viewBox="0 0 810 459" fill="none" xmlns="http://www.w3.org/2000/svg">
<g clip-path="url(#clip0)">
<path d="M594.434 432.647C581.568 433.174 568.703 431.615 556.336 428.031C525.809 419.68 499.26 403.678 474.487 384.398C453.246 367.899 434.198 349.026 415.341 329.929C408.085 322.583 400.87 322.634 393.441 329.929C380.481 342.725 367.866 355.855 354.156 367.889C329.078 389.918 302.347 409.33 271.14 421.831C255.917 427.919 240.146 431.978 223.736 432.465C221.966 432.492 220.207 432.741 218.499 433.206L207.569 446.65L219.95 458.928C220.993 459.039 222.044 459.039 223.086 458.928C229.774 458.167 236.584 458.167 243.181 456.899C280.517 449.897 313.257 432.85 343.378 410.273C363.935 394.692 383.32 377.623 401.377 359.203C403.66 356.9 404.959 356.575 407.415 359.061C421.743 373.601 436.843 387.36 452.648 400.279C466.135 411.469 480.521 421.531 495.657 430.364C520.532 444.57 546.847 454.961 575.608 458.177C581.313 458.901 587.082 458.959 592.8 458.35L582.123 447.766L594.434 432.647Z" fill="#6F2DA8"/>
<path d="M217.677 58.4462C221.605 58.1824 225.41 59.2783 229.267 59.3798C240.677 59.8175 252.013 61.4085 263.102 64.1286C290.686 70.5212 314.089 84.6864 335.594 102.434C354.786 118.383 372.765 135.738 389.381 154.356C401.235 167.547 408.248 166.634 419.827 154.001C439.668 132.408 460.482 111.779 484.047 94.0825C512.311 72.8753 543.65 60.5467 579.19 59.3696C581.488 59.3987 583.785 59.2562 586.061 58.9434L597.153 44.971L584.052 32.3177C582.22 32.1554 580.374 32.3238 578.602 32.8149C576.494 33.3906 574.33 33.7309 572.147 33.8296C556.924 34.2862 542.209 37.5332 527.717 42.0182C492.359 52.9567 463.781 74.7018 437.212 99.43C426.951 108.978 417.199 119.085 407.405 129.11C404.99 131.586 403.691 131.353 401.316 129.039C389.432 117.289 377.974 105.112 365.522 93.9405C349.68 79.7347 333.046 66.6146 314.403 56.2748C285.663 40.344 254.577 33.4541 221.95 32.6931C220.684 32.5161 219.397 32.5539 218.144 32.8048L229.48 43.6113L217.677 58.4462Z" fill="#6F2DA8"/>
<path d="M25.676 238.373C26.2747 234.487 26.8836 231.27 27.1069 227.983C28.3221 211.495 32.0597 195.291 38.1892 179.936C51.1235 146.377 73.4198 117.234 102.43 95.97C130.024 75.2379 162.882 62.6627 197.268 59.6741L208.939 44.9711L197.005 33.4035C196.173 33.3867 195.341 33.4376 194.518 33.5557C181.325 35.4431 168.233 37.3 155.476 40.9833C130.319 48.1788 106.705 59.9499 85.8165 75.7064C60.4983 94.6329 39.6372 118.878 24.7017 146.735C12.4426 169.638 4.58716 194.636 1.54259 220.433C0.933676 225.375 -0.23341 230.408 0.101493 236.262L10.3922 225.882L25.676 238.373Z" fill="#6F2DA8"/>
<path d="M604.978 59.5926C605.699 59.6738 606.551 59.41 607.241 59.4302C627.65 60.1811 647.176 65.0415 665.89 72.8649C705.338 89.3639 736.281 115.898 758.242 152.712C771.949 175.784 780.377 201.603 782.924 228.317C783.065 230.27 783.493 232.191 784.192 234.02L795.772 243.446L809.107 229.991C809.107 229.484 809.107 228.977 809.107 228.398C808.655 220.003 807.445 211.665 805.494 203.487C801.008 182.384 793.386 162.071 782.883 143.224C767.457 115.655 746.714 92.9154 721.525 74.2246C700.312 58.6278 676.384 47.1082 650.961 40.2524C636.506 36.332 621.685 33.9077 606.734 33.0176L617.684 43.5908L604.978 59.5926Z" fill="#6F2DA8"/>
<path d="M796.858 263.964L783.319 252.924C783.338 253.201 783.338 253.479 783.319 253.756C782.68 278.88 776.429 302.665 765.58 325.171C751.104 355.44 728.772 381.272 700.913 399.975C678.701 415.265 653.417 425.519 626.828 430.02C622.616 430.73 618.253 430.923 614.213 432.384L602.654 446.651L614.254 458.117C617.491 457.102 621.358 457.62 624.951 456.991C647.917 453.033 670.193 446.763 691.008 436.078C727.33 417.448 756.618 391.025 778.286 356.342C794.27 330.742 803.952 302.918 808.082 272.995C809.097 265.892 808.082 258.789 809.696 251.899C809.787 251.514 809.929 251.088 810.01 250.682L796.858 263.964Z" fill="#6F2DA8"/>
<path d="M199.379 432.607C196.384 432.022 193.358 431.605 190.317 431.359C186.289 431.067 182.289 430.47 178.351 429.573C142.666 422.446 109.773 405.236 83.5737 379.984C68.1734 365.306 55.4162 348.085 45.8615 329.077C36.1087 309.716 29.37 289.351 27.6854 267.667C27.4779 264.472 26.8989 261.312 25.9601 258.251L11.4375 246.409L1.28888 256.668C0.429471 259.717 0.249326 262.917 0.761147 266.044C3.46067 285.81 7.55056 305.069 14.8068 323.557C24.5777 348.394 39.0503 371.112 57.4309 390.466C76.279 410.547 98.7178 426.925 123.59 438.756C142.73 447.888 162.997 453.134 183.679 457.021C188.342 457.732 193.042 458.172 197.756 458.34L187.099 447.777L199.379 432.607Z" fill="#6F2DA8"/>
<path d="M652.92 363.161C654.412 348.955 655.741 334.749 657.142 320.543C656.259 320.289 656.046 320.147 655.944 320.208C655.199 320.607 654.478 321.047 653.783 321.527C641.087 330.771 627.041 336.433 611.575 339.609C588.781 344.297 568.261 339.254 548.653 327.808C534.334 319.437 521.831 308.722 509.429 297.854C508.018 296.616 506.791 295.308 504.639 295.541C488.604 297.276 472.59 299.062 456.535 300.614C453.926 300.858 453.652 301.852 453.612 304.014C453.348 318.493 453.033 332.983 452.597 347.463C452.485 349.045 452.75 350.631 453.369 352.092C453.988 353.552 454.944 354.845 456.159 355.865C478.182 376.159 501.828 394.068 529.31 406.438C548.618 415.282 569.537 420.069 590.77 420.501C604.603 420.755 618.171 418.898 631.771 416.087C652.068 411.876 670.812 403.982 688.471 393.388C693.362 390.446 698.619 387.696 702.882 382.47L659.243 372.07C652.017 370.355 652.159 370.385 652.92 363.161Z" fill="#1496FF"/>
<path d="M729.684 131.546C725.787 127.122 721.91 122.566 716.806 118.639C716.258 123.712 715.74 127.832 715.385 131.992C714.37 144.169 713.355 156.416 712.34 168.633C712.168 170.662 711.427 171.565 709.062 172.113C701.755 173.778 694.337 172.712 686.999 173.686C679.378 174.701 671.624 174.701 662.815 175.208C664.906 177.603 666.286 179.267 667.717 180.809C686.177 200.992 695.25 224.442 693.088 252.031C691.373 274.355 682.554 293.431 667.331 309.687C666.164 310.924 664.916 312.102 664.753 313.887C663.322 329.778 661.942 345.678 660.481 361.578C660.237 364.318 661.272 365.181 664.002 365.81C677.52 368.925 690.927 372.557 704.465 375.571C707.022 376.139 709.955 377.976 712.898 375.297C727.563 361.923 740.3 346.997 750.073 329.636C767.811 298.623 775.38 262.831 771.718 227.293C768.055 191.756 753.344 158.26 729.654 131.515L729.684 131.546Z" fill="#1496FF"/>
<path d="M461.883 131.159C475.827 133.067 489.741 135.127 503.705 136.791C506.821 137.156 507.643 138.049 507.562 141.053C507.369 148.48 507.501 155.918 507.501 163.376C507.501 170.834 507.501 178.252 507.501 185.699C507.501 186.927 506.689 188.662 508.262 189.332C509.835 190.002 510.657 188.317 511.54 187.475C519.433 180.153 527.837 173.402 536.688 167.272C550.643 157.795 565.663 150.642 582.55 149.008C602.705 147.049 622.342 150.154 640.052 160.281C649.703 165.801 659.172 169.972 670.355 167.922C676.049 166.907 681.844 167.729 687.385 166.714C692.459 165.801 697.533 167.029 702.445 165.487C703.836 165.05 705.551 165.243 705.49 162.95C705.287 158.891 706.505 155.035 706.667 150.987C706.881 141.259 707.831 131.561 709.509 121.976C710.909 114.305 707.763 109.384 701.562 105.305C690.297 97.8872 678.972 90.693 666.611 85.1527C647.115 76.4263 626.585 71.6268 605.496 69.709C594.412 68.7161 583.251 69.0226 572.239 70.6222C554.959 72.954 538.111 77.7908 522.227 84.9802C499.189 95.5737 479.156 110.47 460.32 127.222C459.457 127.983 458.108 128.694 458.635 130.013C459.163 131.332 460.706 130.997 461.883 131.159Z" fill="#1496FF"/>
<path d="M498.519 200.24C499.534 199.124 500.549 198.211 500.549 196.395C500.488 179.662 500.549 162.909 500.549 146.197C500.549 144.817 500.61 143.721 498.601 143.458C483.804 141.543 469.024 139.531 454.261 137.42C452.862 137.162 451.418 137.302 450.093 137.824C448.769 138.346 447.618 139.229 446.772 140.373C443.27 144.432 439.465 148.288 435.801 152.245C417.824 171.639 399.851 191.027 381.882 210.408C358.692 235.278 336.903 261.447 312.536 285.232C308.832 288.854 304.854 292.203 300.419 296.201C303.093 297.202 305.894 297.827 308.741 298.057C321.771 299.255 334.792 300.625 347.823 301.873C349.497 302.035 350.157 302.654 350.238 304.349C350.492 309.534 351.253 314.719 351.162 319.884C350.989 331.695 352.694 343.425 351.923 356.413C358.591 351.908 363.025 346.834 367.724 342.126C385.992 323.861 403.021 304.582 420.406 285.526C446.393 257.033 472.431 228.605 498.519 200.24Z" fill="#1496FF"/>
<path d="M149.448 355.063C148.385 347.767 147.744 340.415 147.53 333.044C147.469 326.763 145.318 320.868 145.429 314.597C145.429 313.014 144.262 312.253 143.339 311.33C131.208 299.218 122.642 284.004 118.576 267.353C112.68 243.832 115.907 221.529 127.192 200.301C131.074 192.996 135.947 186.262 141.674 180.291C130.962 178.888 120.182 178.059 109.382 177.805C103.556 177.744 97.7614 176.527 91.9361 176.101C89.7948 175.948 89.6121 174.984 89.4599 173.259C88.3435 160.068 86.3544 146.979 86.4153 133.686C86.4697 131.269 85.7122 128.904 84.2638 126.969C83.4824 127.983 82.9445 128.765 82.295 129.455C66.0658 146.628 53.7809 167.135 46.2979 189.545C39.1939 210.438 35.7231 232.163 37.4686 254.537C38.6053 269.088 40.8786 283.294 45.3541 297.154C54.3153 324.896 69.8325 348.569 90.0992 369.381C94.5849 373.977 98.9894 374.667 104.926 373.054C117.45 369.655 130.095 366.682 142.781 363.922C149.215 362.511 150.24 361.426 149.448 355.063Z" fill="#7DC7FF"/>
<path d="M344.159 341.579C345.022 332.974 343.297 323.101 343.307 313.167C343.307 309.798 342.079 308.794 338.933 308.631C331.747 308.236 324.603 307.18 317.458 306.45C311.42 305.831 305.107 306.663 299.191 304.045C296.897 303.03 293.913 303.588 291.326 305.861C280.849 315.207 269.376 323.374 257.115 330.214C247.849 335.288 238.167 339.874 227.684 340.99C202.109 343.71 178.382 337.997 157.181 322.989C156.532 322.523 156.014 321.609 155.05 322.046C153.822 322.604 154.401 323.781 154.32 324.714C153.914 329.605 155.02 334.384 155.436 339.214C156.177 347.718 156.755 356.241 157.872 364.694C158.227 367.372 157.872 368.296 155.274 368.823C151.691 369.554 148.17 370.396 144.546 371.188C133.038 373.745 121.661 376.86 110.204 379.671C108.6 380.056 106.144 379.508 105.759 381.223C105.373 382.938 107.788 384.176 109.148 385.13C120.586 392.933 132.236 400.431 145.196 405.525C161.525 411.948 178.108 417.154 195.797 418.868C211.314 420.36 226.852 420.898 242.044 418.189C261.61 414.678 280.04 407.24 297.405 397.357C308.565 390.841 319.322 383.657 329.616 375.845C345.225 364.288 345.103 364.125 344.393 344.471C344.382 343.933 344.322 343.456 344.159 341.579Z" fill="#7DC7FF"/>
<path d="M96.3508 165.792C96.5639 168.491 97.3656 169.049 99.8926 169.08C110.133 169.201 120.241 170.916 130.48 171.444C140.913 171.971 151.224 174.407 159.374 165.244C159.577 165.021 160.013 165.021 160.287 164.838C173.541 155.95 188.807 150.519 204.697 149.039C216.317 148.025 228.1 147.781 239.75 151.261C254.363 155.549 267.998 162.65 279.888 172.164C281.116 173.179 282.537 174.742 284.374 173.899C286.404 172.966 285.257 170.916 285.277 169.414C285.379 155.391 285.358 141.368 285.368 127.345C285.368 125.316 284.983 123.611 288.18 123.215C304.032 121.236 319.843 118.923 336.527 116.609C319.65 103.763 302.956 92.0942 283.897 83.9259C271.803 78.722 259.168 74.8764 246.225 72.4597C231.904 69.773 217.278 69.09 202.769 70.4303C195.455 70.9506 188.177 71.8857 180.97 73.2309C167.563 75.9101 154.503 80.1005 142.04 85.7219C124.513 93.8395 108.204 103.824 94.3413 117.452C93.613 118.136 93.0645 118.99 92.7441 119.936C92.4237 120.883 92.3414 121.894 92.5045 122.88C93.7832 137.188 95.2141 151.475 96.3508 165.792Z" fill="#7DC7FF"/>
<path d="M292.28 135.604C292.746 142.656 292.401 149.81 292.401 156.913C292.401 163.498 292.726 170.104 292.29 176.659C291.985 181.124 293.944 183.762 297.039 186.431C306.367 194.709 315.211 203.518 323.527 212.813C330.631 220.585 337.553 228.49 344.616 236.283C345.438 237.186 345.884 238.799 347.863 236.587C363.969 218.668 380.339 200.961 396.648 183.265C398.85 180.88 398.677 179.064 396.648 176.74C381.222 159.023 364.548 142.524 347.721 126.167C346.087 124.574 344.22 122.809 341.581 123.336C327.181 126.228 312.597 127.771 298.003 129.343C294.35 129.719 291.975 130.947 292.28 135.604Z" fill="#7DC7FF"/>
<path d="M466.501 253.584C463.72 250.438 462.076 250.884 459.579 253.655C443.91 271.033 428.179 288.357 412.388 305.628C410.521 307.657 410.288 308.915 412.652 310.884C415.017 312.852 416.712 315.825 418.954 318.048C427.479 326.409 436.126 334.658 444.569 342.786C445.565 340.122 445.943 337.266 445.676 334.435C444.975 321.954 446.762 309.534 446.691 297.064C446.691 295.318 446.569 293.948 449.146 293.695C465.384 292.092 481.703 290.275 499.169 288.408C487.478 276.82 476.872 265.324 466.501 253.584Z" fill="#7DC7FF"/>
<path d="M380.055 12.0035H379.558C379.558 12.0035 373.235 9.8726 368.394 9.8726C364.416 9.8726 362.711 11.3642 362.711 13.7792C362.711 17.7568 367.257 19.5326 372.017 22.3027C377.416 25.428 382.389 29.3346 382.389 38.0712C382.389 48.6646 375.072 54.418 362 54.418C357.563 54.4454 353.15 53.7602 348.929 52.3886V41.9372H349.426C349.426 41.9372 356.601 44.4942 361.716 44.4942C365.837 44.4942 368.181 42.8605 368.181 39.9484C368.181 35.2604 362.143 33.1295 356.957 29.7202C352.268 26.676 348.503 22.8303 348.503 15.5143C348.503 5.49924 355.607 -0.0410156 367.785 -0.0410156C371.903 -0.0325308 376.001 0.541046 379.963 1.66367L380.055 12.0035Z" fill="#6F2DA8"/>
<path d="M420.974 52.855C416.812 53.8776 412.543 54.4021 408.258 54.4176C400.799 54.4176 396.079 52.6419 392.913 49.5166C389.29 45.8941 387.839 40.6278 387.839 34.0221C387.839 21.521 393.238 12.8555 405.954 12.8555C412.774 12.8555 417.605 15.3415 420.304 19.3901C423.349 24.007 423.349 29.6894 423.349 37.6548H401.083C401.083 42.4137 403.853 45.1838 409.608 45.1838C413.286 45.0079 416.933 44.4121 420.477 43.4081H420.974V52.855ZM410.318 29.9126C410.318 24.8391 409.465 21.7443 405.913 21.7443C402.361 21.7443 400.991 24.9304 400.991 29.9126H410.318Z" fill="#6F2DA8"/>
<path d="M456.281 53.4235C453.714 54.1367 451.059 54.4784 448.395 54.4382C434.685 54.4382 429.001 46.4829 429.001 34.1442C429.001 21.8054 434.685 13.4747 448.395 13.4747C451.058 13.4429 453.713 13.7844 456.281 14.4894V24.4335H455.794C453.968 23.9061 452.081 23.6196 450.182 23.5811C444.427 23.5811 442.864 27.2036 442.864 33.9514C442.864 40.6991 444.427 44.3216 450.182 44.3216C452.081 44.2832 453.968 43.9966 455.794 43.4693H456.291L456.281 53.4235Z" fill="#6F2DA8"/>
<path d="M177.956 213.29C182.573 213.29 189.464 213.29 195.36 216.841C200.973 220.251 205.164 226.786 205.164 239.855C205.164 252.366 201.328 259.469 195.289 263.193C189.251 266.917 182.431 266.745 177.956 266.745H162.398V213.29H177.956ZM175.824 256.344H179.021C180.797 256.344 183.71 256.344 185.983 254.923C189.606 252.721 190.956 247.607 190.956 239.855C190.956 232.103 189.606 227.212 185.77 225.01C183.685 223.951 181.357 223.461 179.021 223.589H175.824V256.344Z" fill="#7DC7FF"/>
<path d="M244.094 265.648C239.932 266.671 235.663 267.195 231.378 267.211C223.919 267.211 219.199 265.435 216.033 262.31C212.41 258.687 210.959 253.431 210.959 246.815C210.959 234.314 216.358 225.648 229.074 225.648C235.894 225.648 240.725 228.134 243.424 232.183C246.469 236.8 246.469 242.482 246.469 250.448H224.203C224.203 255.217 226.973 257.987 232.728 257.987C236.407 257.804 240.054 257.202 243.597 256.191H244.094V265.648ZM233.438 242.695C233.438 237.622 232.585 234.527 229.033 234.527C225.481 234.527 224.061 237.723 224.061 242.695H233.438Z" fill="#7DC7FF"/>
<path d="M263.843 226.765L270.379 252.7L277.178 226.765H289.255L276.326 266.764H262.118L249.341 226.765H263.843Z" fill="#7DC7FF"/>
<path d="M561.705 260.534C557.797 265.08 551.688 267.708 543.944 267.708C536.627 267.708 530.376 265.364 526.327 260.463C522.277 255.562 520.745 248.074 520.745 239.956C520.745 231.007 522.592 224.117 526.641 219.429C530.69 214.741 536.729 212.255 544.472 212.255C551.789 212.255 558.041 214.599 562.09 219.5C566.424 224.756 567.702 232.356 567.702 239.672C567.672 248.744 565.754 255.846 561.705 260.534ZM551.12 253.502C552.682 250.732 553.251 246.602 553.251 239.997C553.251 233.391 552.682 229.271 551.12 226.501C550.394 225.315 549.376 224.335 548.163 223.656C546.951 222.976 545.584 222.619 544.193 222.619C542.803 222.619 541.436 222.976 540.223 223.656C539.01 224.335 537.992 225.315 537.267 226.501C535.704 229.271 535.136 233.32 535.136 239.997C535.136 246.674 535.704 250.732 537.267 253.502C537.992 254.688 539.01 255.668 540.223 256.348C541.436 257.028 542.803 257.385 544.193 257.385C545.584 257.385 546.951 257.028 548.163 256.348C549.376 255.668 550.394 254.688 551.12 253.502Z" fill="#1496FF"/>
<path d="M575.06 279.854V226.765H585.574L587.705 232.447C589.197 227.83 593.459 225.983 598.29 225.983C603.121 225.983 606.886 227.688 609.515 231.169C612.143 234.649 613.28 239.692 613.28 246.308C613.28 252.629 612.265 258.383 608.946 262.431C607.568 264.092 605.826 265.414 603.855 266.294C601.884 267.174 599.737 267.588 597.58 267.505C593.033 267.505 589.694 265.871 588.203 262.178V279.864L575.06 279.854ZM598.006 255.42C599.143 253.573 599.498 251.158 599.498 246.754C599.498 242.351 599.143 239.854 598.006 238.008C597.571 237.302 596.949 236.732 596.209 236.359C595.469 235.986 594.64 235.826 593.815 235.897C592.988 235.835 592.16 236.001 591.421 236.377C590.682 236.753 590.061 237.324 589.623 238.028C588.487 239.875 588.203 242.29 588.203 246.693C588.203 251.097 588.487 253.593 589.623 255.44C590.061 256.144 590.682 256.715 591.421 257.091C592.16 257.467 592.988 257.633 593.815 257.571C594.644 257.638 595.476 257.472 596.216 257.092C596.957 256.712 597.577 256.133 598.006 255.42Z" fill="#1496FF"/>
<path d="M645.461 236.912H644.893C641.966 235.977 638.936 235.405 635.87 235.207C633.1 235.207 631.963 236.222 631.963 237.48C631.963 240.108 636.723 241.174 640.417 243.305C644.111 245.436 647.166 248.378 647.166 254.324C647.166 261.925 641.98 267.181 629.974 267.181C626.216 267.238 622.474 266.686 618.892 265.547V256.191H619.46C619.46 256.191 625.549 258.221 629.761 258.221C632.745 258.221 634.023 257.206 634.023 255.593C634.023 252.468 628.949 251.757 624.575 248.987C621.449 246.958 618.75 244.076 618.75 238.749C618.75 230.723 624.839 226.248 635.373 226.248C638.782 226.228 642.177 226.683 645.461 227.597V236.912Z" fill="#1496FF"/>
<path d="M331.463 152.631C332.682 153.671 333.609 155.011 334.153 156.517C334.599 158.192 334.153 160.049 332.367 161.824C330.58 163.6 328.591 164.199 326.876 163.793C325.372 163.32 324.024 162.447 322.979 161.266L322.147 160.444L318.331 164.32L315.743 161.743L328.043 149.222L331.463 152.631ZM324.207 158.354L325.151 159.288C325.647 159.873 326.326 160.274 327.079 160.424C328.015 160.296 328.88 159.859 329.539 159.182C330.197 158.506 330.61 157.628 330.712 156.69C330.529 155.961 330.112 155.313 329.525 154.843L328.571 153.91L324.207 158.354Z" fill="white"/>
<path d="M341.033 162.038L330.885 172.357L334.944 176.345L332.793 178.537L326.095 171.961L338.395 159.45L341.033 162.038Z" fill="white"/>
<path d="M341.216 186.817L343.134 183.367L339.156 179.461L335.715 181.409L333.402 179.136L349.497 170.349L352.542 173.301L343.976 189.537L341.216 186.817ZM341.723 178.02L344.555 180.8L348.127 174.397L341.723 178.02Z" fill="white"/>
<path d="M360.153 180.82L357.352 193.22L364.913 185.528L367.196 187.771L354.917 200.282L352.593 197.989L355.241 185.285L347.579 193.067L345.316 190.845L357.616 178.334L360.153 180.82Z" fill="white"/>
<path d="M383.099 267.354L388.011 271.768L385.636 274.406L372.575 262.656L376.35 258.465C377.288 257.24 378.571 256.324 380.034 255.837C380.941 255.727 381.861 255.834 382.718 256.149C383.575 256.464 384.344 256.978 384.964 257.649C385.583 258.32 386.034 259.128 386.28 260.007C386.526 260.887 386.559 261.812 386.377 262.706L394.192 264.878L391.502 267.861L384.571 265.7L383.099 267.354ZM380.917 265.385L382.277 263.873C382.768 263.423 383.105 262.83 383.241 262.179C383.222 261.782 383.116 261.395 382.93 261.044C382.744 260.693 382.483 260.388 382.166 260.149C381.911 259.871 381.595 259.656 381.243 259.522C380.89 259.388 380.511 259.339 380.136 259.378C379.518 259.529 378.97 259.887 378.583 260.393L377.152 261.996L380.917 265.385Z" fill="white"/>
<path d="M389.32 244.087L391.543 246.116L387.382 250.723L390.335 253.382L393.837 249.495L396.049 251.525L392.558 255.411L395.988 258.455L400.342 253.615L402.564 255.644L395.775 263.194L382.724 251.403L389.32 244.087Z" fill="white"/>
<path d="M393.887 239.003L404.635 248.673L408.45 244.442L410.734 246.471L404.462 253.442L391.421 241.712L393.887 239.003Z" fill="white"/>
<path d="M405.68 225.903L407.902 227.933L403.752 232.55L406.695 235.198L410.196 231.312L412.419 233.341L408.917 237.227L412.358 240.271L416.711 235.441L418.934 237.471L412.134 245.01L399.094 233.27L405.68 225.903Z" fill="white"/>
<path d="M427.053 228.4L423.521 226.634L419.786 230.825L421.877 234.183L419.715 236.598L410.227 220.901L413.058 217.766L429.61 225.599L427.053 228.4ZM418.234 228.278L420.893 225.335L414.337 222.048L418.234 228.278Z" fill="white"/>
<path d="M426.302 207.943L426.18 208.085C425.193 208.628 424.29 209.311 423.501 210.115C422.385 211.343 422.486 212.367 423.136 212.996C424.262 214.011 426.058 212.996 428.129 212.438C429.051 212.071 430.059 211.971 431.035 212.151C432.012 212.33 432.918 212.782 433.649 213.453C436.237 215.777 435.821 218.851 433.294 221.662C432.402 222.675 431.341 223.527 430.158 224.178L427.915 222.149L428.027 222.027C429.153 221.474 430.182 220.74 431.072 219.856C432.208 218.587 432.259 217.309 431.396 216.528C430.108 215.381 428.108 216.528 425.916 217.065C425.071 217.38 424.154 217.452 423.27 217.273C422.385 217.094 421.569 216.67 420.913 216.051C418.64 214.021 418.609 211.211 421.167 208.369C422.037 207.42 423.026 206.588 424.11 205.894L426.302 207.943Z" fill="white"/>
<path d="M432.858 195.716L435.07 197.745L430.919 202.362L433.873 205.021L437.364 201.134L439.586 203.164L436.085 207.04L439.526 210.135L443.879 205.295L446.102 207.324L439.312 214.873L426.261 203.042L432.858 195.716Z" fill="white"/>
<path d="M172.648 125.6C171.712 126.247 170.686 126.753 169.603 127.102C163.981 128.979 160.764 125.631 159.272 121.156C157.78 116.681 158.257 112.024 163.94 110.156C165.014 109.789 166.135 109.577 167.269 109.527L168.213 112.369L168.04 112.419C167.108 112.385 166.177 112.515 165.29 112.805C162.246 113.82 161.779 116.508 162.885 119.827C163.991 123.145 166.031 125.194 169.136 124.159C170.001 123.858 170.806 123.404 171.511 122.82L171.694 122.769L172.648 125.6Z" fill="white"/>
<path d="M186.724 119.998C186.199 121.025 185.454 121.923 184.543 122.631C183.632 123.338 182.577 123.836 181.452 124.091C180.327 124.345 179.16 124.35 178.033 124.104C176.907 123.858 175.848 123.367 174.931 122.667C173.632 121.46 172.729 119.532 172.13 116.843C171.511 114.749 171.539 112.517 172.212 110.44C172.688 109.375 173.423 108.446 174.35 107.737C175.277 107.028 176.366 106.562 177.519 106.381C178.633 106.057 179.811 106.018 180.945 106.268C182.078 106.518 183.13 107.049 184.004 107.812C185.364 109.06 186.227 111.018 186.805 113.596C187.414 116.305 187.384 118.344 186.724 119.998ZM183.243 119.197C183.578 118.182 183.527 116.812 182.999 114.438C182.472 112.063 181.924 110.805 181.203 110.034C180.79 109.67 180.297 109.409 179.764 109.272C179.231 109.135 178.673 109.126 178.135 109.245C177.598 109.365 177.097 109.61 176.672 109.961C176.247 110.311 175.912 110.757 175.692 111.262C175.368 112.277 175.408 113.646 175.936 116.011C176.464 118.375 177.012 119.653 177.732 120.425C178.144 120.791 178.638 121.054 179.171 121.192C179.705 121.33 180.264 121.34 180.802 121.22C181.34 121.1 181.842 120.854 182.266 120.503C182.691 120.151 183.025 119.703 183.243 119.197Z" fill="white"/>
<path d="M194.061 103.886C195.957 103.534 197.912 103.709 199.714 104.393C201.663 105.266 203.317 107.133 203.774 111.648C204.23 115.971 203.144 118.315 201.247 119.685C199.633 120.696 197.781 121.263 195.878 121.328L191.098 121.836L189.261 104.383L194.061 103.886ZM194.478 118.528L195.99 118.365C196.943 118.336 197.87 118.045 198.669 117.523C199.948 116.509 200.262 114.865 199.968 112.105C199.674 109.345 199.014 107.742 197.512 107.031C196.64 106.68 195.686 106.585 194.762 106.757L193.25 106.909L194.478 118.528Z" fill="white"/>
<path d="M216.916 102.759V105.742H210.705V109.709H215.942V112.754H210.715V117.381L217.231 117.33V120.313L207.082 120.394L206.95 102.84L216.916 102.759Z" fill="white"/>
<path d="M83.3403 237.166C83.3519 238.564 83.0023 239.941 82.3254 241.164C81.9229 241.77 81.3561 242.25 80.6912 242.546C80.0263 242.843 79.2907 242.944 78.5704 242.838C75.0793 242.574 74.988 239.662 74.988 239.662C74.9007 240.191 74.7097 240.697 74.4258 241.151C74.1419 241.606 73.7709 242 73.3341 242.31C72.8972 242.62 72.4033 242.841 71.8807 242.96C71.3581 243.078 70.8172 243.092 70.2892 243C69.4514 242.997 68.6319 242.756 67.9258 242.305C67.2198 241.854 66.6562 241.212 66.3008 240.454C65.7311 239.017 65.5594 237.454 65.8035 235.928L66.2094 230.57L83.7056 231.91L83.3403 237.166ZM68.7973 234.325L68.6451 236.303C68.5487 236.944 68.6367 237.598 68.8988 238.191C69.0821 238.542 69.3643 238.832 69.7105 239.025C70.0568 239.218 70.452 239.306 70.8473 239.276C71.225 239.36 71.6189 239.33 71.9799 239.191C72.3409 239.052 72.6529 238.81 72.8771 238.495C73.2182 237.929 73.3972 237.279 73.3946 236.618L73.5469 234.69L68.7973 234.325ZM76.5407 234.913L76.4189 236.496C76.3307 237.044 76.3939 237.605 76.6016 238.12C76.7666 238.419 77.0115 238.667 77.3089 238.835C77.6064 239.003 77.9447 239.086 78.2863 239.074C78.6333 239.141 78.9924 239.112 79.3237 238.988C79.655 238.864 79.9458 238.652 80.1637 238.373C80.4089 237.914 80.5378 237.402 80.5392 236.882L80.661 235.228L76.5407 234.913Z" fill="white"/>
<path d="M82.9343 249.526L71.3446 249.871C69.4062 249.932 68.026 250.561 68.0869 252.915C68.1478 255.269 69.5788 255.766 71.5171 255.715L83.117 255.36L83.2083 258.628L72.2681 258.952C70.5443 259.182 68.7944 258.798 67.3258 257.866C66.6084 257.237 66.0417 256.454 65.6676 255.576C65.2935 254.697 65.1214 253.747 65.1641 252.793C65.0931 250.408 65.7426 248.734 67.001 247.648C68.2594 246.563 70.2283 246.309 71.8622 246.258L82.8227 245.934L82.9343 249.526Z" fill="white"/>
<path d="M84.0202 265.223L66.5849 267.191L66.1689 263.528L83.6143 261.56L84.0202 265.223Z" fill="white"/>
<path d="M85.0655 271.95L70.8575 274.527L71.8723 280.128L68.8278 280.676L67.1025 271.412L84.3551 268.297L85.0655 271.95Z" fill="white"/>
<path d="M87.6433 283.518C88.3128 285.331 88.4777 287.291 88.1203 289.19C87.5925 291.22 86.0398 293.249 81.6556 294.447C77.4845 295.634 74.988 294.964 73.3135 293.33C72.0377 291.917 71.1588 290.191 70.7662 288.328L69.4468 283.711L86.3849 278.901L87.6433 283.518ZM73.2932 286.451L73.7092 287.902C73.8953 288.839 74.3421 289.704 74.9981 290.398C76.1855 291.494 77.8905 291.514 80.5596 290.753C83.2286 289.992 84.69 289.069 85.1264 287.465C85.3253 286.545 85.2549 285.587 84.9235 284.705L84.5074 283.254L73.2932 286.451Z" fill="white"/>
<path d="M515.741 341.893L511.469 354.07L522.45 347.292L526.073 350.224L515.011 363.851L512.24 361.599L520.471 351.452L509.581 358.514L507.115 356.485L511.723 344.308L503.492 354.455L501.046 352.426L512.108 338.809L515.741 341.893Z" fill="white"/>
<path d="M531.462 371.178C530.371 371.55 529.212 371.679 528.066 371.555C526.92 371.431 525.815 371.058 524.829 370.461C523.844 369.864 523.001 369.058 522.36 368.1C521.719 367.143 521.296 366.056 521.12 364.917C521.177 362.731 521.884 360.612 523.15 358.829C524.158 356.894 525.724 355.306 527.646 354.273C528.728 353.833 529.904 353.671 531.065 353.802C532.226 353.933 533.336 354.353 534.293 355.024C535.319 355.555 536.196 356.334 536.843 357.292C537.49 358.249 537.887 359.353 537.997 360.503C538.109 362.34 537.368 364.349 535.968 366.591C534.567 368.834 533.085 370.447 531.462 371.178ZM529.513 368.134C530.447 367.637 531.37 366.612 532.639 364.542C533.907 362.472 534.384 361.183 534.405 360.128C534.365 359.577 534.194 359.044 533.906 358.572C533.619 358.1 533.223 357.704 532.752 357.417C532.28 357.129 531.747 356.958 531.196 356.917C530.645 356.877 530.092 356.969 529.584 357.185C528.65 357.682 527.727 358.707 526.458 360.777C525.19 362.847 524.713 364.136 524.693 365.191C524.732 365.742 524.903 366.275 525.191 366.747C525.478 367.219 525.874 367.615 526.346 367.902C526.817 368.19 527.35 368.361 527.901 368.402C528.452 368.442 529.005 368.35 529.513 368.134Z" fill="white"/>
<path d="M545.558 361.507L547.202 374.11L551.678 364.298L554.59 365.627L547.293 381.588L544.32 380.239L542.473 367.383L537.926 377.316L535.044 375.997L542.331 360.036L545.558 361.507Z" fill="white"/>
<path d="M560.903 367.809L555.027 384.349L551.556 383.111L557.432 366.571L560.903 367.809Z" fill="white"/>
<path d="M574.005 371.614L573.193 374.567L569.194 373.461L565.338 387.433L561.806 386.419L565.652 372.446L561.674 371.35L562.486 368.397L574.005 371.614Z" fill="white"/>
<path d="M585.107 388.753C584.273 389.577 583.243 390.176 582.115 390.496C580.986 390.815 579.795 390.844 578.653 390.579C577.497 390.468 576.389 390.066 575.431 389.411C574.473 388.757 573.696 387.87 573.172 386.835C572.411 385.221 572.289 383.101 572.746 380.381C572.949 378.21 573.806 376.151 575.202 374.476C576.075 373.724 577.102 373.172 578.211 372.859C579.32 372.546 580.484 372.48 581.621 372.665C582.758 372.849 583.841 373.281 584.794 373.928C585.747 374.576 586.547 375.424 587.137 376.414C587.923 378.459 588.075 380.694 587.573 382.827C587.117 385.587 586.335 387.464 585.107 388.753ZM582.174 386.723C582.854 385.911 583.331 384.613 583.727 382.228C584.123 379.844 584.082 378.453 583.727 377.469C583.481 376.975 583.121 376.546 582.677 376.218C582.232 375.89 581.717 375.672 581.172 375.582C580.627 375.492 580.069 375.532 579.543 375.7C579.016 375.867 578.537 376.157 578.145 376.546C577.475 377.357 576.998 378.646 576.603 381.051C576.207 383.456 576.237 384.816 576.603 385.8C576.848 386.294 577.206 386.723 577.65 387.051C578.093 387.379 578.608 387.597 579.152 387.687C579.696 387.777 580.254 387.737 580.779 387.569C581.305 387.402 581.783 387.112 582.174 386.723Z" fill="white"/>
<path d="M594.078 385.383L593.804 391.979L590.263 391.837L591.003 374.303L596.646 374.536C598.185 374.479 599.705 374.886 601.01 375.703C601.674 376.331 602.179 377.108 602.483 377.969C602.787 378.831 602.882 379.753 602.759 380.658C602.636 381.563 602.299 382.427 601.776 383.176C601.253 383.925 600.559 384.539 599.751 384.967L603.06 392.375L599 392.202L596.25 385.475L594.078 385.383ZM594.21 382.451L596.24 382.532C596.902 382.622 597.576 382.505 598.168 382.197C598.462 381.925 598.693 381.593 598.845 381.224C598.998 380.854 599.068 380.456 599.051 380.056C599.098 379.686 599.058 379.31 598.934 378.958C598.811 378.606 598.608 378.287 598.341 378.027C597.829 377.646 597.201 377.456 596.565 377.489L594.423 377.398L594.21 382.451Z" fill="white"/>
<path d="M209.751 367.657L209.508 370.701L205.367 370.366L204.169 384.806L200.516 384.501L201.713 370.062L197.593 369.717L197.847 366.673L209.751 367.657Z" fill="white"/>
<path d="M221.199 367.606V370.651H214.988V374.618H220.225V377.662H214.998V382.279H221.503V385.323H211.355L211.253 367.779L221.199 367.606Z" fill="white"/>
<path d="M233.052 369.889H232.87C231.771 369.625 230.639 369.519 229.51 369.574C227.856 369.737 227.207 370.518 227.298 371.452C227.44 372.963 229.429 373.481 231.358 374.414C232.286 374.776 233.094 375.391 233.689 376.189C234.285 376.988 234.645 377.937 234.727 378.93C235.052 382.39 232.697 384.379 228.902 384.734C227.543 384.879 226.169 384.786 224.842 384.46L224.558 381.467H224.72C225.928 381.826 227.186 381.984 228.445 381.933C230.14 381.771 231.043 380.919 230.931 379.701C230.769 377.986 228.536 377.448 226.537 376.393C225.697 376.057 224.967 375.493 224.429 374.766C223.891 374.038 223.567 373.175 223.492 372.273C223.208 369.229 225.076 367.2 228.881 366.794C230.165 366.684 231.458 366.742 232.728 366.967L233.052 369.889Z" fill="white"/>
<path d="M245.951 364.278L246.509 367.322L242.45 368.073L245.089 382.279L241.486 382.949L238.847 368.692L234.788 369.443L234.23 366.399L245.951 364.278Z" fill="white"/>
<path d="M568.281 100.08C570.183 99.7499 572.138 99.9356 573.944 100.618C575.882 101.501 577.526 103.378 578.003 107.903C578.429 112.226 577.333 114.57 575.425 115.93C573.807 116.934 571.951 117.49 570.047 117.543L565.267 118.03L563.511 100.567L568.281 100.08ZM568.626 114.732L570.128 114.58C571.085 114.562 572.017 114.273 572.817 113.748C574.106 112.733 574.431 111.1 574.147 108.34C573.862 105.58 573.223 103.976 571.721 103.266C570.85 102.912 569.896 102.813 568.971 102.982L567.459 103.134L568.626 114.732Z" fill="white"/>
<path d="M591.196 99.1365V102.13H584.985V106.097H590.212V109.06H584.985V113.677H591.491V116.66H581.342V99.1162L591.196 99.1365Z" fill="white"/>
<path d="M600.452 99.7964C602.053 99.8422 603.616 100.3 604.988 101.126C606.389 102.14 607.18 103.886 606.947 106.372C606.714 108.858 605.516 110.593 603.902 111.354C602.439 111.946 600.84 112.118 599.285 111.851L598.128 111.75L597.61 117.158L593.936 116.803L595.611 99.3398L600.452 99.7964ZM598.422 108.817L599.752 108.939C600.504 109.091 601.287 108.976 601.964 108.614C602.319 108.309 602.604 107.931 602.799 107.505C602.993 107.08 603.093 106.617 603.09 106.148C603.192 105.676 603.186 105.187 603.072 104.718C602.957 104.249 602.738 103.812 602.431 103.439C601.832 102.978 601.096 102.731 600.34 102.739L599.021 102.617L598.422 108.817Z" fill="white"/>
<path d="M614.903 101.765L612.295 115.971L617.887 116.985L617.339 120.029L608.104 118.335L611.28 101.085L614.903 101.765Z" fill="white"/>
<path d="M631.567 121.237C630.62 121.894 629.54 122.334 628.404 122.528C627.267 122.723 626.102 122.665 624.991 122.361C623.879 122.056 622.848 121.511 621.969 120.765C621.091 120.018 620.387 119.089 619.907 118.041C619.354 115.907 619.449 113.657 620.181 111.577C620.612 109.444 621.672 107.49 623.225 105.966C624.148 105.247 625.236 104.771 626.39 104.581C627.544 104.391 628.728 104.494 629.832 104.88C630.971 105.112 632.034 105.628 632.921 106.381C633.808 107.133 634.491 108.096 634.906 109.182C635.473 111.3 635.384 113.539 634.653 115.605C633.912 118.325 632.927 120.111 631.567 121.237ZM628.878 118.893C629.639 118.152 630.248 116.925 630.908 114.581C631.567 112.237 631.679 110.877 631.405 109.852C631.214 109.335 630.903 108.871 630.497 108.497C630.092 108.124 629.603 107.852 629.072 107.705C628.541 107.557 627.982 107.538 627.442 107.648C626.902 107.759 626.396 107.996 625.965 108.34C625.204 109.071 624.585 110.309 623.936 112.642C623.286 114.976 623.174 116.356 623.448 117.381C623.64 117.898 623.951 118.362 624.356 118.736C624.762 119.109 625.25 119.381 625.781 119.528C626.313 119.676 626.871 119.695 627.411 119.585C627.951 119.474 628.458 119.237 628.888 118.893H628.878Z" fill="white"/>
<path d="M642.67 109.314L643.076 117.249L648.729 111.648L651.865 112.866L643.106 121.237L640.742 127.325L637.301 125.996L639.646 119.908L638.814 107.731L642.67 109.314Z" fill="white"/>
<path d="M720.672 220.16C719.663 219.603 718.789 218.832 718.11 217.902C717.43 216.971 716.963 215.903 716.741 214.773C716.518 213.642 716.546 212.477 716.822 211.358C717.098 210.24 717.615 209.195 718.338 208.298C720.002 206.847 722.063 205.928 724.255 205.66C726.364 205.104 728.592 205.195 730.648 205.923C731.702 206.43 732.612 207.192 733.297 208.14C733.981 209.088 734.417 210.192 734.565 211.352C734.861 212.474 734.869 213.653 734.588 214.779C734.308 215.905 733.749 216.942 732.962 217.795C731.311 219.233 729.269 220.144 727.096 220.413C724.978 220.98 722.738 220.892 720.672 220.16ZM721.575 216.7C722.59 217.055 723.95 217.055 726.335 216.598C728.72 216.142 729.999 215.583 730.79 214.924C731.169 214.526 731.449 214.045 731.606 213.518C731.763 212.992 731.794 212.436 731.695 211.895C731.596 211.355 731.37 210.845 731.037 210.409C730.703 209.972 730.271 209.621 729.775 209.384C728.76 209.028 727.401 209.028 725.016 209.495C722.631 209.962 721.352 210.459 720.56 211.159C720.183 211.56 719.906 212.045 719.752 212.574C719.599 213.103 719.573 213.661 719.677 214.202C719.781 214.743 720.012 215.251 720.351 215.685C720.69 216.119 721.127 216.467 721.626 216.7H721.575Z" fill="white"/>
<path d="M736.524 227.923C736.76 229.51 736.586 231.131 736.017 232.631C735.256 234.194 733.683 235.279 731.186 235.482C728.689 235.685 726.781 234.813 725.746 233.372C724.911 232.035 724.461 230.493 724.447 228.917L724.346 227.75L718.926 228.197L718.632 224.513L736.128 223.093L736.524 227.923ZM727.279 227.507L727.39 228.836C727.378 229.603 727.629 230.352 728.101 230.957C728.466 231.252 728.891 231.465 729.347 231.58C729.802 231.696 730.277 231.712 730.739 231.626C731.221 231.643 731.699 231.551 732.14 231.358C732.581 231.165 732.973 230.875 733.287 230.51C733.626 229.837 733.736 229.071 733.601 228.329L733.5 226.999L727.279 227.507Z" fill="white"/>
<path d="M737.032 248.734H733.987L734.068 242.524H730.1L730.039 247.749H727.045L727.106 242.524L722.489 242.463L722.407 248.977H719.424L719.546 238.83L737.092 239.043L737.032 248.734Z" fill="white"/>
<path d="M725.543 255.533L718.967 254.833L719.343 251.312L736.798 253.148L736.21 258.77C736.171 260.309 735.668 261.802 734.768 263.052C734.201 263.668 733.486 264.131 732.691 264.395C731.895 264.66 731.046 264.718 730.222 264.564C727.614 264.29 726.162 262.991 725.594 261.215L717.993 264.046L718.419 260.058L725.31 257.735L725.543 255.533ZM728.466 255.837L728.253 257.867C728.12 258.522 728.195 259.203 728.466 259.815C728.717 260.126 729.034 260.378 729.393 260.553C729.753 260.729 730.147 260.823 730.547 260.829C730.917 260.906 731.3 260.894 731.665 260.795C732.03 260.697 732.366 260.514 732.647 260.261C733.057 259.771 733.287 259.155 733.297 258.516L733.52 256.385L728.466 255.837Z" fill="white"/>
<path d="M715.76 275.065L719.698 274.801L720.824 269.342L717.323 267.495L717.973 264.319L734.099 273.076L733.246 277.216L714.979 278.819L715.76 275.065ZM723.432 270.712L722.631 274.598L729.948 274.131L723.432 270.712Z" fill="white"/>
<path d="M728.669 294.213L725.726 293.361L726.893 289.373L712.99 285.314L714.004 281.793L727.918 285.852L729.075 281.894L732.018 282.747L728.669 294.213Z" fill="white"/>
<path d="M724.011 306.572L721.22 305.557L723.443 299.763L719.738 298.333L717.861 303.213L715.08 302.199L716.948 297.318L712.634 295.654L710.3 301.742L707.509 300.727L711.153 291.25L727.543 297.541L724.011 306.572Z" fill="white"/>
</g>
<defs>
<clipPath id="clip0">
<rect width="810" height="459" fill="white"/>
</clipPath>
</defs>
</svg>
