<svg xmlns="http://www.w3.org/2000/svg" viewBox="0 0 760 360" font-family="system-ui,-apple-system,sans-serif">
<rect x="1" y="1" width="758" height="358" rx="14" fill="#ffffff" stroke="#e2e8f0" stroke-width="2"/>
<defs><marker id="a" markerWidth="10" markerHeight="10" refX="8" refY="3" orient="auto"><path d="M0,0 L9,3 L0,6 Z" fill="#0369a1"/></marker></defs>
<text x="36" y="46" font-size="21" font-weight="700" fill="#0f172a">Horizontal scaling (scale-out / scale-in)</text>
<text x="36" y="70" font-size="13.5" fill="#64748b">Add more identical nodes behind a load balancer and share the load</text>
<g text-anchor="middle">
<rect x="300" y="110" width="160" height="52" rx="12" fill="#fff7ed" stroke="#f59e0b" stroke-width="2"/>
<text x="380" y="142" font-size="14.5" font-weight="600" fill="#0f172a">Load balancer</text>
<rect x="110" y="250" width="120" height="60" rx="10" fill="#eff6ff" stroke="#0369a1" stroke-width="2"/><text x="170" y="286" font-size="14" font-weight="600" fill="#0f172a">Node 1</text>
<rect x="255" y="250" width="120" height="60" rx="10" fill="#eff6ff" stroke="#0369a1" stroke-width="2"/><text x="315" y="286" font-size="14" font-weight="600" fill="#0f172a">Node 2</text>
<rect x="400" y="250" width="120" height="60" rx="10" fill="#eff6ff" stroke="#0369a1" stroke-width="2"/><text x="460" y="286" font-size="14" font-weight="600" fill="#0f172a">Node 3</text>
<rect x="545" y="250" width="120" height="60" rx="10" fill="#dbeafe" stroke="#0369a1" stroke-width="2.5" stroke-dasharray="6 4"/><text x="605" y="280" font-size="14" font-weight="600" fill="#0f172a">Node 4</text><text x="605" y="298" font-size="10.5" fill="#0369a1">added</text>
</g>
<g stroke="#f59e0b" stroke-width="2" fill="none" marker-end="url(#a)">
<path d="M340 164 C 250 200, 190 220, 172 246"/>
<path d="M368 164 C 340 200, 320 224, 316 246"/>
<path d="M398 164 C 430 200, 450 224, 458 246"/>
<path d="M420 164 C 520 200, 580 220, 602 246"/>
</g>
</svg>
