<svg xmlns="http://www.w3.org/2000/svg" viewBox="0 0 760 380" font-family="system-ui,-apple-system,sans-serif">
<rect x="1" y="1" width="758" height="378" rx="14" fill="#ffffff" stroke="#e2e8f0" stroke-width="2"/>
<defs>
<marker id="a" markerWidth="10" markerHeight="10" refX="8" refY="3" orient="auto"><path d="M0,0 L9,3 L0,6 Z" fill="#0369a1"/></marker>
<marker id="b" markerWidth="10" markerHeight="10" refX="2" refY="3" orient="auto"><path d="M9,0 L0,3 L9,6 Z" fill="#0369a1"/></marker>
</defs>
<text x="36" y="46" font-size="21" font-weight="700" fill="#0f172a">Multi-Master (Primary-Primary)</text>
<text x="36" y="70" font-size="13.5" fill="#64748b">Every node accepts reads and writes; changes replicate to the others</text>
<g stroke="#0369a1" stroke-width="2" marker-start="url(#b)" marker-end="url(#a)">
<line x1="332" y1="176" x2="278" y2="250"/>
<line x1="428" y1="176" x2="482" y2="250"/>
<line x1="312" y1="286" x2="448" y2="286"/>
</g>
<g text-anchor="middle">
<rect x="300" y="108" width="160" height="66" rx="12" fill="#eff6ff" stroke="#0369a1" stroke-width="2"/>
<text x="380" y="136" font-size="15" font-weight="600" fill="#0f172a">Primary 1</text>
<text x="380" y="157" font-size="12.5" fill="#0369a1">reads + writes</text>
<rect x="150" y="252" width="160" height="66" rx="12" fill="#eff6ff" stroke="#0369a1" stroke-width="2"/>
<text x="230" y="280" font-size="15" font-weight="600" fill="#0f172a">Primary 2</text>
<text x="230" y="301" font-size="12.5" fill="#0369a1">reads + writes</text>
<rect x="450" y="252" width="160" height="66" rx="12" fill="#eff6ff" stroke="#0369a1" stroke-width="2"/>
<text x="530" y="280" font-size="15" font-weight="600" fill="#0f172a">Primary 3</text>
<text x="530" y="301" font-size="12.5" fill="#0369a1">reads + writes</text>
</g>
<text x="675" y="150" text-anchor="middle" font-size="12" fill="#64748b">writes at</text>
<text x="675" y="166" text-anchor="middle" font-size="12" fill="#64748b">any node</text>
</svg>
