<svg xmlns="http://www.w3.org/2000/svg" viewBox="0 0 760 360" font-family="system-ui,-apple-system,sans-serif">
<rect x="1" y="1" width="758" height="358" rx="14" fill="#ffffff" stroke="#e2e8f0" stroke-width="2"/>
<text x="36" y="46" font-size="21" font-weight="700" fill="#0f172a">Hot partition</text>
<text x="36" y="70" font-size="13.5" fill="#64748b">One shard absorbs most of the load while the others sit nearly idle</text>
<line x1="70" y1="300" x2="720" y2="300" stroke="#cbd5e1" stroke-width="2"/>
<text x="52" y="120" font-size="11" fill="#94a3b8" text-anchor="end">load</text>
<g text-anchor="middle" font-size="12" fill="#475569">
<rect x="90" y="270" width="70" height="30" rx="6" fill="#bae6fd"/><text x="125" y="320">S1</text>
<rect x="180" y="264" width="70" height="36" rx="6" fill="#bae6fd"/><text x="215" y="320">S2</text>
<rect x="270" y="110" width="70" height="190" rx="6" fill="#dc2626"/><text x="305" y="320" font-weight="600" fill="#dc2626">S3</text>
<text x="305" y="98" font-weight="700" fill="#dc2626">~50% load</text>
<rect x="360" y="276" width="70" height="24" rx="6" fill="#bae6fd"/><text x="395" y="320">S4</text>
<rect x="450" y="268" width="70" height="32" rx="6" fill="#bae6fd"/><text x="485" y="320">S5</text>
<rect x="540" y="278" width="70" height="22" rx="6" fill="#bae6fd"/><text x="575" y="320">S6</text>
<rect x="630" y="272" width="70" height="28" rx="6" fill="#bae6fd"/><text x="665" y="320">S7</text>
</g>
<text x="470" y="150" font-size="12.5" fill="#64748b">others &#8776; 10% each</text>
</svg>
